<svg width="84" height="85" viewBox="0 0 84 85" fill="none" xmlns="http://www.w3.org/2000/svg">
<g clip-path="url(#clip0_2411_11774)">
<path d="M45.5 10.6445C28.105 10.6445 14 24.7495 14 42.1445H3.5L17.115 55.7595L17.36 56.2495L31.5 42.1445H21C21 28.5995 31.955 17.6445 45.5 17.6445C59.045 17.6445 70 28.5995 70 42.1445C70 55.6895 59.045 66.6445 45.5 66.6445C38.745 66.6445 32.62 63.8795 28.21 59.4345L23.24 64.4045C28.945 70.1095 36.785 73.6445 45.5 73.6445C62.895 73.6445 77 59.5395 77 42.1445C77 24.7495 62.895 10.6445 45.5 10.6445ZM42 28.1445V45.6445L56.875 54.4645L59.57 49.9845L47.25 42.6695V28.1445H42Z" fill="#272936" fill-opacity="0.45"/>
</g>
<defs>
<clipPath id="clip0_2411_11774">
<rect width="84" height="84" fill="white" transform="translate(0 0.144531)"/>
</clipPath>
</defs>
</svg>
