<svg width="84" height="85" viewBox="0 0 84 85" fill="none" xmlns="http://www.w3.org/2000/svg">
<rect y="0.144531" width="84" height="84" fill="white"/>
<g clip-path="url(#clip0_2411_11784)">
<path d="M59.4981 58.3141C61.6631 58.3141 63.4181 56.5591 63.4181 54.3941C63.4181 52.2292 61.6631 50.4741 59.4981 50.4741C57.3332 50.4741 55.5781 52.2292 55.5781 54.3941C55.5781 56.5591 57.3332 58.3141 59.4981 58.3141Z" fill="#272936" fill-opacity="0.45"/>
<path fill-rule="evenodd" clip-rule="evenodd" d="M59.4972 61.3945C56.9422 61.3945 51.8322 62.6545 51.6572 65.1745C53.4072 67.6595 56.2772 69.2695 59.4972 69.2695C62.7172 69.2695 65.5872 67.6595 67.3372 65.1745C67.1622 62.6545 62.0522 61.3945 59.4972 61.3945Z" fill="#272936" fill-opacity="0.45"/>
<path fill-rule="evenodd" clip-rule="evenodd" d="M62.998 38.9595V22.0895L36.748 10.6445L10.498 22.0895V39.2745C10.498 55.1645 21.698 70.0395 36.748 73.6445C38.673 73.1895 40.528 72.5245 42.348 71.7195C46.128 77.1095 52.393 80.6445 59.498 80.6445C71.083 80.6445 80.498 71.2295 80.498 59.6445C80.498 49.2495 72.938 40.6395 62.998 38.9595ZM38.498 59.6445C38.498 61.6045 38.778 63.5295 39.303 65.3145C38.463 65.6995 37.623 66.0845 36.748 66.3645C25.653 62.8645 17.498 51.5245 17.498 39.2745V26.6745L36.748 18.2745L55.998 26.6745V38.9595C46.058 40.6395 38.498 49.2495 38.498 59.6445ZM59.498 73.6445C51.763 73.6445 45.498 67.3795 45.498 59.6445C45.498 51.9095 51.763 45.6445 59.498 45.6445C67.233 45.6445 73.498 51.9095 73.498 59.6445C73.498 67.3795 67.233 73.6445 59.498 73.6445Z" fill="#272936" fill-opacity="0.45"/>
</g>
<defs>
<clipPath id="clip0_2411_11784">
<rect width="84" height="84" fill="white" transform="translate(0 0.144531)"/>
</clipPath>
</defs>
</svg>
