<svg width="84" height="85" viewBox="0 0 84 85" fill="none" xmlns="http://www.w3.org/2000/svg">
<g clip-path="url(#clip0_2411_11731)">
<path d="M73.5 17.6445C69.615 16.4195 65.345 15.8945 61.25 15.8945C54.425 15.8945 47.075 17.2945 42 21.1445C36.925 17.2945 29.575 15.8945 22.75 15.8945C15.925 15.8945 8.575 17.2945 3.5 21.1445V72.4195C3.5 73.2945 4.375 74.1695 5.25 74.1695C5.6 74.1695 5.775 73.9945 6.125 73.9945C10.85 71.7195 17.675 70.1445 22.75 70.1445C29.575 70.1445 36.925 71.5445 42 75.3945C46.725 72.4195 55.3 70.1445 61.25 70.1445C67.025 70.1445 72.975 71.1945 77.875 73.8195C78.225 73.9945 78.4 73.9945 78.75 73.9945C79.625 73.9945 80.5 73.1195 80.5 72.2445V21.1445C78.4 19.5695 76.125 18.5195 73.5 17.6445ZM10.5 64.8945V24.6445C14.35 23.4195 18.55 22.8945 22.75 22.8945C27.44 22.8945 33.705 24.3295 38.5 26.3595V66.6095C33.705 64.5795 27.44 63.1445 22.75 63.1445C18.55 63.1445 14.35 63.6695 10.5 64.8945ZM73.5 64.8945C69.65 63.6695 65.45 63.1445 61.25 63.1445C56.56 63.1445 50.295 64.5795 45.5 66.6095V26.3595C50.295 24.2945 56.56 22.8945 61.25 22.8945C65.45 22.8945 69.65 23.4195 73.5 24.6445V64.8945Z" fill="#272936" fill-opacity="0.45"/>
<path d="M61.25 36.8945C64.33 36.8945 67.305 37.2095 70 37.8045V32.4845C67.235 31.9595 64.26 31.6445 61.25 31.6445C56.77 31.6445 52.64 32.2045 49 33.2895V38.7845C52.465 37.5595 56.63 36.8945 61.25 36.8945Z" fill="#272936" fill-opacity="0.45"/>
<path d="M61.25 46.2046C64.33 46.2046 67.305 46.5196 70 47.1146V41.7946C67.235 41.2696 64.26 40.9546 61.25 40.9546C56.77 40.9546 52.64 41.5146 49 42.5996V48.0946C52.465 46.9046 56.63 46.2046 61.25 46.2046Z" fill="#272936" fill-opacity="0.45"/>
<path d="M61.25 55.5496C64.33 55.5496 67.305 55.8646 70 56.4596V51.1396C67.235 50.6146 64.26 50.2996 61.25 50.2996C56.77 50.2996 52.64 50.8596 49 51.9446V57.4396C52.465 56.2146 56.63 55.5496 61.25 55.5496Z" fill="#272936" fill-opacity="0.45"/>
</g>
<defs>
<clipPath id="clip0_2411_11731">
<rect width="84" height="84" fill="white" transform="translate(0 0.144531)"/>
</clipPath>
</defs>
</svg>
