<svg width="84" height="85" viewBox="0 0 84 85" fill="none" xmlns="http://www.w3.org/2000/svg">
<rect y="0.144531" width="84" height="84" fill="white"/>
<g clip-path="url(#clip0_2457_13497)">
<path d="M70 21.1445H42L35 14.1445H14C10.15 14.1445 7.035 17.2945 7.035 21.1445L7 63.1445C7 66.9945 10.15 70.1445 14 70.1445H70C73.85 70.1445 77 66.9945 77 63.1445V28.1445C77 24.2945 73.85 21.1445 70 21.1445ZM70 63.1445H14V21.1445H32.095L39.095 28.1445H70V63.1445ZM52.5 45.6445C56.35 45.6445 59.5 42.4945 59.5 38.6445C59.5 34.7945 56.35 31.6445 52.5 31.6445C48.65 31.6445 45.5 34.7945 45.5 38.6445C45.5 42.4945 48.65 45.6445 52.5 45.6445ZM38.5 59.6445H66.5V56.1445C66.5 51.4895 57.155 49.1445 52.5 49.1445C47.845 49.1445 38.5 51.4895 38.5 56.1445V59.6445Z" fill="#272936" fill-opacity="0.45"/>
</g>
<defs>
<clipPath id="clip0_2457_13497">
<rect width="84" height="84" fill="white" transform="translate(0 0.144531)"/>
</clipPath>
</defs>
</svg>
