<svg width="84" height="85" viewBox="0 0 84 85" fill="none" xmlns="http://www.w3.org/2000/svg">
<g clip-path="url(#clip0_2411_11707)">
<path d="M24.5 56.1445H49V63.1445H24.5V56.1445ZM24.5 42.1445H59.5V49.1445H24.5V42.1445ZM24.5 28.1445H59.5V35.1445H24.5V28.1445ZM66.5 14.1445H51.87C50.4 10.0845 46.55 7.14453 42 7.14453C37.45 7.14453 33.6 10.0845 32.13 14.1445H17.5C17.01 14.1445 16.555 14.1795 16.1 14.2845C14.735 14.5645 13.51 15.2645 12.565 16.2095C11.935 16.8395 11.41 17.6095 11.06 18.4495C10.71 19.2545 10.5 20.1645 10.5 21.1445V70.1445C10.5 71.0895 10.71 72.0345 11.06 72.8745C11.41 73.7145 11.935 74.4495 12.565 75.1145C13.51 76.0595 14.735 76.7595 16.1 77.0395C16.555 77.1095 17.01 77.1445 17.5 77.1445H66.5C70.35 77.1445 73.5 73.9945 73.5 70.1445V21.1445C73.5 17.2945 70.35 14.1445 66.5 14.1445ZM42 13.2695C43.435 13.2695 44.625 14.4595 44.625 15.8945C44.625 17.3295 43.435 18.5195 42 18.5195C40.565 18.5195 39.375 17.3295 39.375 15.8945C39.375 14.4595 40.565 13.2695 42 13.2695ZM66.5 70.1445H17.5V21.1445H66.5V70.1445Z" fill="#272936" fill-opacity="0.45"/>
</g>
<defs>
<clipPath id="clip0_2411_11707">
<rect width="84" height="84" fill="white" transform="translate(0 0.144531)"/>
</clipPath>
</defs>
</svg>
