<svg width="84" height="85" viewBox="0 0 84 85" fill="none" xmlns="http://www.w3.org/2000/svg">
<rect y="0.144531" width="84" height="84" fill="white"/>
<g clip-path="url(#clip0_2457_13595)">
<path d="M56 14.1445C56 10.2945 59.15 7.14453 63 7.14453C66.85 7.14453 70 10.2945 70 14.1445C70 17.9945 66.85 21.1445 63 21.1445C59.15 21.1445 56 17.9945 56 14.1445ZM72.73 26.6745C69.755 25.3795 66.465 24.6445 63 24.6445C60.655 24.6445 58.415 24.9945 56.28 25.6245C58.31 27.5495 59.5 30.2445 59.5 33.1495V35.1445H77V33.1495C77 30.3145 75.32 27.7945 72.73 26.6745ZM21 21.1445C24.85 21.1445 28 17.9945 28 14.1445C28 10.2945 24.85 7.14453 21 7.14453C17.15 7.14453 14 10.2945 14 14.1445C14 17.9945 17.15 21.1445 21 21.1445ZM27.72 25.6245C25.585 24.9945 23.345 24.6445 21 24.6445C17.535 24.6445 14.245 25.3795 11.27 26.6745C8.68 27.7945 7 30.3145 7 33.1495V35.1445H24.5V33.1495C24.5 30.2445 25.69 27.5495 27.72 25.6245ZM35 14.1445C35 10.2945 38.15 7.14453 42 7.14453C45.85 7.14453 49 10.2945 49 14.1445C49 17.9945 45.85 21.1445 42 21.1445C38.15 21.1445 35 17.9945 35 14.1445ZM56 35.1445H28V33.1495C28 30.3145 29.68 27.7945 32.27 26.6745C35.245 25.3795 38.535 24.6445 42 24.6445C45.465 24.6445 48.755 25.3795 51.73 26.6745C54.32 27.7945 56 30.3145 56 33.1495V35.1445ZM52.5 56.1445C52.5 52.2945 55.65 49.1445 59.5 49.1445C63.35 49.1445 66.5 52.2945 66.5 56.1445C66.5 59.9945 63.35 63.1445 59.5 63.1445C55.65 63.1445 52.5 59.9945 52.5 56.1445ZM73.5 77.1445H45.5V75.1495C45.5 72.3145 47.18 69.7945 49.77 68.6745C52.745 67.3795 56.035 66.6445 59.5 66.6445C62.965 66.6445 66.255 67.3795 69.23 68.6745C71.82 69.7945 73.5 72.3145 73.5 75.1495V77.1445ZM17.5 56.1445C17.5 52.2945 20.65 49.1445 24.5 49.1445C28.35 49.1445 31.5 52.2945 31.5 56.1445C31.5 59.9945 28.35 63.1445 24.5 63.1445C20.65 63.1445 17.5 59.9945 17.5 56.1445ZM38.5 77.1445H10.5V75.1495C10.5 72.3145 12.18 69.7945 14.77 68.6745C17.745 67.3795 21.035 66.6445 24.5 66.6445C27.965 66.6445 31.255 67.3795 34.23 68.6745C36.82 69.7945 38.5 72.3145 38.5 75.1495V77.1445ZM44.625 45.6445V38.6445H39.375V45.6445H31.5L42 56.1445L52.5 45.6445H44.625Z" fill="#272936" fill-opacity="0.45"/>
</g>
<defs>
<clipPath id="clip0_2457_13595">
<rect width="84" height="84" fill="white" transform="translate(0 0.144531)"/>
</clipPath>
</defs>
</svg>
