<svg width="84" height="85" viewBox="0 0 84 85" fill="none" xmlns="http://www.w3.org/2000/svg">
<rect y="0.144531" width="84" height="84" fill="white"/>
<g clip-path="url(#clip0_2457_13613)">
<path d="M24.4996 56.1445H48.9996V63.1445H24.4996V56.1445ZM24.4996 42.1445H59.4996V49.1445H24.4996V42.1445ZM24.4996 28.1445H59.4996V35.1445H24.4996V28.1445ZM66.4996 14.1445H51.8696C50.3996 10.0845 46.5496 7.14453 41.9996 7.14453C37.4496 7.14453 33.5996 10.0845 32.1296 14.1445H17.4996C17.0096 14.1445 16.5546 14.1795 16.0996 14.2845C14.7346 14.5645 13.5096 15.2645 12.5646 16.2095C11.9346 16.8395 11.4096 17.6095 11.0596 18.4495C10.7096 19.2545 10.4996 20.1645 10.4996 21.1445V70.1445C10.4996 71.0895 10.7096 72.0345 11.0596 72.8745C11.4096 73.7145 11.9346 74.4495 12.5646 75.1145C13.5096 76.0595 14.7346 76.7595 16.0996 77.0395C16.5546 77.1095 17.0096 77.1445 17.4996 77.1445H66.4996C70.3496 77.1445 73.4996 73.9945 73.4996 70.1445V21.1445C73.4996 17.2945 70.3496 14.1445 66.4996 14.1445ZM41.9996 13.2695C43.4346 13.2695 44.6246 14.4595 44.6246 15.8945C44.6246 17.3295 43.4346 18.5195 41.9996 18.5195C40.5646 18.5195 39.3746 17.3295 39.3746 15.8945C39.3746 14.4595 40.5646 13.2695 41.9996 13.2695ZM66.4996 70.1445H17.4996V21.1445H66.4996V70.1445Z" fill="#272936" fill-opacity="0.45"/>
</g>
<defs>
<clipPath id="clip0_2457_13613">
<rect width="84" height="84" fill="white" transform="translate(0 0.144531)"/>
</clipPath>
</defs>
</svg>
