<svg width="84" height="85" viewBox="0 0 84 85" fill="none" xmlns="http://www.w3.org/2000/svg">
<g clip-path="url(#clip0_2411_11719)">
<path d="M38.5 42.1445C46.235 42.1445 52.5 35.8795 52.5 28.1445C52.5 20.4095 46.235 14.1445 38.5 14.1445C30.765 14.1445 24.5 20.4095 24.5 28.1445C24.5 35.8795 30.765 42.1445 38.5 42.1445ZM38.5 21.1445C42.35 21.1445 45.5 24.2945 45.5 28.1445C45.5 31.9945 42.35 35.1445 38.5 35.1445C34.65 35.1445 31.5 31.9945 31.5 28.1445C31.5 24.2945 34.65 21.1445 38.5 21.1445ZM17.5 63.1445C18.2 60.9395 26.495 57.2645 34.86 56.3545L42 49.3545C40.635 49.2145 39.62 49.1445 38.5 49.1445C29.155 49.1445 10.5 53.8345 10.5 63.1445V70.1445H42L35 63.1445H17.5ZM72.1 43.8945L54.145 61.9895L46.9 54.7095L42 59.6445L54.145 71.8945L77 48.8295L72.1 43.8945Z" fill="#272936" fill-opacity="0.45"/>
</g>
<defs>
<clipPath id="clip0_2411_11719">
<rect width="84" height="84" fill="white" transform="translate(0 0.144531)"/>
</clipPath>
</defs>
</svg>
