<svg width="67" height="58" viewBox="0 0 67 58" fill="none" xmlns="http://www.w3.org/2000/svg">
<path d="M28.5 28.1445C36.235 28.1445 42.5 21.8795 42.5 14.1445C42.5 6.40953 36.235 0.144531 28.5 0.144531C20.765 0.144531 14.5 6.40953 14.5 14.1445C14.5 21.8795 20.765 28.1445 28.5 28.1445ZM28.5 7.14453C32.35 7.14453 35.5 10.2945 35.5 14.1445C35.5 17.9945 32.35 21.1445 28.5 21.1445C24.65 21.1445 21.5 17.9945 21.5 14.1445C21.5 10.2945 24.65 7.14453 28.5 7.14453ZM7.5 49.1445C8.2 46.9395 16.495 43.2645 24.86 42.3545L32 35.3545C30.635 35.2145 29.62 35.1445 28.5 35.1445C19.155 35.1445 0.5 39.8345 0.5 49.1445V56.1445H32L25 49.1445H7.5ZM62.1 29.8945L44.145 47.9895L36.9 40.7095L32 45.6445L44.145 57.8945L67 34.8295L62.1 29.8945Z" fill="#272936" fill-opacity="0.45"/>
</svg>
