<svg width="78" height="61" viewBox="0 0 78 61" fill="none" xmlns="http://www.w3.org/2000/svg">
<path d="M70.5 2.64453C66.615 1.41953 62.345 0.894531 58.25 0.894531C51.425 0.894531 44.075 2.29453 39 6.14453C33.925 2.29453 26.575 0.894531 19.75 0.894531C12.925 0.894531 5.575 2.29453 0.5 6.14453V57.4195C0.5 58.2945 1.375 59.1695 2.25 59.1695C2.6 59.1695 2.775 58.9945 3.125 58.9945C7.85 56.7195 14.675 55.1445 19.75 55.1445C26.575 55.1445 33.925 56.5445 39 60.3945C43.725 57.4195 52.3 55.1445 58.25 55.1445C64.025 55.1445 69.975 56.1945 74.875 58.8195C75.225 58.9945 75.4 58.9945 75.75 58.9945C76.625 58.9945 77.5 58.1195 77.5 57.2445V6.14453C75.4 4.56953 73.125 3.51953 70.5 2.64453ZM7.5 49.8945V9.64453C11.35 8.41953 15.55 7.89453 19.75 7.89453C24.44 7.89453 30.705 9.32953 35.5 11.3595V51.6095C30.705 49.5795 24.44 48.1445 19.75 48.1445C15.55 48.1445 11.35 48.6695 7.5 49.8945ZM70.5 49.8945C66.65 48.6695 62.45 48.1445 58.25 48.1445C53.56 48.1445 47.295 49.5795 42.5 51.6095V11.3595C47.295 9.29453 53.56 7.89453 58.25 7.89453C62.45 7.89453 66.65 8.41953 70.5 9.64453V49.8945Z" fill="#272936" fill-opacity="0.45"/>
</svg>
