<svg width="84" height="85" viewBox="0 0 84 85" fill="none" xmlns="http://www.w3.org/2000/svg">
<g clip-path="url(#clip0_2411_11762)">
<path d="M49.001 17.6445H77.001V24.6445H49.001V17.6445ZM49.001 36.8945H77.001V43.8945H49.001V36.8945ZM49.001 56.1445H77.001V63.1445H49.001V56.1445ZM7.00098 40.3945C7.00098 52.9245 17.221 63.1445 29.751 63.1445H31.501V70.1445L42.001 59.6445L31.501 49.1445V56.1445H29.751C21.071 56.1445 14.001 49.0745 14.001 40.3945C14.001 31.7145 21.071 24.6445 29.751 24.6445H42.001V17.6445H29.751C17.221 17.6445 7.00098 27.8645 7.00098 40.3945Z" fill="#272936" fill-opacity="0.45"/>
</g>
<defs>
<clipPath id="clip0_2411_11762">
<rect width="84" height="84" fill="white" transform="translate(0 0.144531)"/>
</clipPath>
</defs>
</svg>
